<?xml version="1.0" encoding="utf-8"?>
<!-- Generator: Adobe Illustrator 21.1.0, SVG Export Plug-In . SVG Version: 6.00 Build 0)  -->
<svg version="1.1" id="Capa_1" xmlns="http://www.w3.org/2000/svg" xmlns:xlink="http://www.w3.org/1999/xlink" x="0px" y="0px"
	 viewBox="0 0 512 512" style="enable-background:new 0 0 512 512;" xml:space="preserve">
<style type="text/css">
	.st0{fill:none;}
	.st1{fill:#ffffff;}<!-- #0177B4 -->
</style>
<rect class="st0" width="512" height="512"/>
<rect x="6.3" y="170.3" class="st1" width="110" height="330.3"/>
<path class="st1" d="M477.3,200.5c-23.1-25.2-53.7-37.8-91.7-37.8c-14,0-26.7,1.7-38.2,5.2c-11.4,3.4-21.1,8.3-29,14.5
	c-7.9,6.2-14.2,12-18.8,17.3c-4.4,5.1-8.8,11-13,17.6v-47H177l0.3,16c0.2,10.7,0.3,43.6,0.3,98.7c0,55.1-0.2,127-0.7,215.7h109.7
	V316.3c0-11.3,1.2-20.3,3.7-27c4.7-11.3,11.7-20.8,21.2-28.5c9.4-7.7,21.2-11.5,35.2-11.5c19.1,0,33.2,6.6,42.2,19.8
	c9,13.2,13.5,31.5,13.5,54.8v176.7H512V311.3C512,262.7,500.4,225.7,477.3,200.5z"/>
<path class="st1" d="M62,11.3c-18.4,0-33.4,5.4-44.8,16.2C5.7,38.3,0,51.9,0,68.3C0,84.6,5.6,98.1,16.7,109
	c11.1,10.9,25.8,16.3,44,16.3h0.7c18.7,0,33.7-5.4,45.2-16.3c11.4-10.9,17.1-24.4,16.8-40.7c-0.2-16.4-5.9-30.1-17-40.8
	C95.2,16.7,80.4,11.3,62,11.3z"/>
</svg>
